<?xml version="1.0" encoding="UTF-8"?>
<svg width="64px" height="120px" viewBox="0 0 64 120" version="1.1" xmlns="http://www.w3.org/2000/svg" xmlns:xlink="http://www.w3.org/1999/xlink">
    <title>logo/gryphonhouse-adjusted-logo-gold</title>
    <defs>
        <linearGradient x1="43.1329183%" y1="-2.91580824%" x2="56.5570022%" y2="100%" id="linearGradient-1">
            <stop stop-color="#F5D696" offset="0%"></stop>
            <stop stop-color="#F4E4A8" offset="23.3345784%"></stop>
            <stop stop-color="#EDD397" offset="48.8195522%"></stop>
            <stop stop-color="#DEB66D" offset="67.480724%"></stop>
            <stop stop-color="#DEA960" offset="100%"></stop>
        </linearGradient>
    </defs>
    <g id="logo/gryphonhouse-adjusted-logo-gold" stroke="none" stroke-width="1" fill="none" fill-rule="evenodd">
        <g id="logo-adjusted" fill="url(#linearGradient-1)">
            <path d="M32.5,0 C49.8969696,0 64,14.1030304 64,31.5 L64,88.5 C64,105.89697 49.8969696,120 32.5,120 L31.5,120 C14.1030304,120 4.54747351e-13,105.89697 4.54747351e-13,88.5 L4.54747351e-13,31.5 C4.54747351e-13,14.1030304 14.1030304,0 31.5,0 L32.5,0 Z M32.5,1 L31.5,1 C14.823762,1 1.27342524,14.3835744 1.00408613,30.9956267 L1,31.5 L1,88.5 C1,105.176238 14.3835744,118.726575 30.9956267,118.995914 L31.5,119 L32.5,119 C49.176238,119 62.7265748,105.616426 62.9959139,89.0043733 L63,88.5 L63,31.5 C63,14.823762 49.6164256,1.27342524 33.0043733,1.00408613 L32.5,1 Z M32,3.5 C47.7401154,3.5 60.5,16.2598846 60.5,32 L60.5,88 C60.5,103.740115 47.7401154,116.5 32,116.5 C16.2598846,116.5 3.5,103.740115 3.5,88 L3.5,32 C3.5,16.2598846 16.2598846,3.5 32,3.5 Z M32,4.5 C16.9640477,4.5 4.74653095,16.5671572 4.50368421,31.5452372 L4.5,32 L4.5,88 C4.5,103.187831 16.8121694,115.5 32,115.5 C47.0359523,115.5 59.253469,103.432843 59.4963158,88.4547628 L59.5,88 L59.5,32 C59.5,16.8121694 47.1878306,4.5 32,4.5 Z M32.357704,18.1145827 C37.5701199,18.1145827 41.8111975,22.9161412 41.8111975,28.8134117 L41.8111975,49.1344452 C41.8111975,49.4690882 42.0215458,50.1253783 42.3805187,50.4795151 L37.6562084,50.4795151 C37.9912227,50.1538067 38.2019771,49.5604652 38.2210628,49.1868347 L38.2210628,28.8134117 C38.2210628,24.893134 35.5884597,21.7046848 32.357704,21.7046848 C29.1220753,21.7046848 26.4939391,24.893134 26.4939391,28.8134117 L26.4939391,90.6232726 C26.4939391,94.5435503 29.1220753,97.7319995 32.357704,97.7319995 C35.5884597,97.7319995 38.2210628,94.5435503 38.2210628,90.6232726 L38.2210628,60.9436066 L38.1301013,60.9200516 C36.1675268,60.3644793 34.6167153,60.0866931 32.5826711,60.0866931 C32.0320295,60.0866931 31.4338768,60.1155276 30.7447626,60.1683233 C30.3809168,60.2353331 29.9212366,60.4266157 29.6483522,60.7092753 L29.6483522,56.6643187 C30.5912651,56.5542601 31.5772223,56.4965911 32.5826711,56.4965911 C38.1922312,56.4965911 43.0505472,58.267681 47.5401444,61.6185783 L47.7318132,61.7623448 L47.7310367,54.0456726 C47.7310165,53.9218931 47.730996,53.7977344 47.7309752,53.6732344 L47.7300516,48.7279907 C47.7300257,48.6010249 47.7299998,48.4742107 47.7299737,48.3475861 L47.7290165,43.9365374 C47.72899,43.8199241 47.7289635,43.7039554 47.7289371,43.5886693 L47.7280404,39.7987861 C47.7280176,39.7053434 47.727995,39.6130385 47.7279727,39.5219091 L47.727001,35.6873034 C47.7269944,35.662274 47.7269884,35.6392167 47.7269828,35.6181692 L47.7269403,35.4579433 L47.7269403,35.4579433 C47.7269403,35.1273615 47.5165919,34.4670102 47.1576191,34.1124673 L51.8868023,34.1124673 C51.5562549,34.4381757 51.3406275,35.0221764 51.3215418,35.3958069 L51.317075,83.9596533 C51.317075,84.2947024 51.5274233,84.9554599 51.8868023,85.3095967 L47.2051302,85.3095967 C47.4731416,85.0415574 47.6554706,84.6106639 47.7318132,84.2707413 L47.7318132,66.5013607 L47.6985148,66.4680589 C47.5645091,66.3242923 47.4349703,66.1951461 47.3630945,66.1374771 L47.2960916,66.0753407 C45.7119817,64.5962512 43.9268633,63.3612398 41.9833745,62.3991412 L41.8111975,62.3126376 L41.8111975,90.6232726 C41.8111975,96.5258227 37.5701199,101.322102 32.357704,101.322102 C27.1452881,101.322102 22.9042105,96.5258227 22.9042105,90.6232726 L22.9042105,62.0783063 L22.7320335,62.1595303 C20.6354533,63.1362492 18.7305418,64.4049686 17.0550644,65.9413211 L16.8922272,66.0891488 L16.8975062,83.978741 C16.8975062,84.3137901 17.1078546,84.9696741 17.4619545,85.324217 L12.7806885,85.324217 C13.0393601,85.0655185 13.221283,84.6394984 13.3024986,84.3044493 L13.3024986,35.4579433 C13.3024986,35.1273615 13.0917441,34.4670102 12.7331774,34.1124673 L17.4570816,34.1124673 C17.1078546,34.4621367 16.8975062,35.0989331 16.8922272,35.4339822 L16.8922272,61.4561302 L17.079023,61.3217045 C18.8836332,60.0343036 20.8173762,58.9861075 22.8278678,58.2104181 L22.9042105,58.1819897 L22.9042105,28.8134117 C22.9042105,22.9161412 27.1452881,18.1145827 32.357704,18.1145827 Z" id="Stroke-1"></path>
        </g>
    </g>
</svg>